<svg width="70" height="70" viewBox="0 0 70 70" fill="none" xmlns="http://www.w3.org/2000/svg">
<path fill-rule="evenodd" clip-rule="evenodd" d="M35 70C54.33 70 70 54.33 70 35C70 15.67 54.33 0 35 0C15.67 0 0 15.67 0 35C0 54.33 15.67 70 35 70Z" fill="#002B51"/>
<g clip-path="url(#clip0)">
<path d="M45.3212 38.7676H24.6825C23.5037 38.7676 22.5476 39.7233 22.5476 40.9025C22.5476 42.0817 23.5037 43.0374 24.6825 43.0374H45.3212C46.5 43.0374 47.4562 42.0817 47.4562 40.9025C47.4562 39.7233 46.5 38.7676 45.3212 38.7676ZM28.4481 41.4486C28.4481 41.7776 28.1813 42.0444 27.8523 42.0444H26.7601C26.4311 42.0444 26.1643 41.7776 26.1643 41.4486V40.3564C26.1643 40.0274 26.4311 39.7606 26.7601 39.7606H27.8523C28.1813 39.7606 28.4481 40.0274 28.4481 40.3564V41.4486ZM43.8395 41.4486C43.8395 41.7776 43.5726 42.0444 43.2437 42.0444H42.1514C41.8225 42.0444 41.5556 41.7776 41.5556 41.4486V40.3564C41.5556 40.0274 41.8225 39.7606 42.1514 39.7606H43.2437C43.5726 39.7606 43.8395 40.0274 43.8395 40.3564V41.4486Z" fill="white"/>
<path d="M19.0897 43.4344C18.7864 42.4255 18.6273 41.379 18.6172 40.3255V38.1832C18.6289 37.5125 18.6987 36.8442 18.8251 36.1855H17.3376C15.3602 36.1855 13.7516 37.8325 13.7516 39.81C13.7516 41.7874 15.3602 43.4344 17.3376 43.4344H19.0897Z" fill="#00ABE2"/>
<path d="M52.6653 36.1855H51.1777C51.3042 36.8442 51.374 37.5125 51.3857 38.1832V40.3255C51.3756 41.379 51.2165 42.4255 50.9132 43.4344H52.6653C54.6427 43.4344 56.2513 41.7874 56.2513 39.81C56.2513 37.8325 54.6427 36.1855 52.6653 36.1855Z" fill="#00ABE2"/>
<path d="M50.0948 38.1966C50.0948 32.919 45.8164 28.6406 40.5388 28.6406H29.3646C24.087 28.6406 19.8086 32.919 19.8086 38.1966V40.3342C19.8086 45.6122 24.087 49.8906 29.3646 49.8906H40.5388C45.8164 49.8906 50.0948 45.6122 50.0948 40.3342V38.1966ZM45.3207 44.2306H24.682C22.845 44.2306 21.3555 42.7411 21.3555 40.9041C21.3555 39.0666 22.845 37.5775 24.682 37.5775H45.3207C47.1577 37.5775 48.6472 39.0666 48.6472 40.9041C48.6472 42.7411 47.1577 44.2306 45.3207 44.2306Z" fill="#00ABE2"/>
<path d="M48.8949 22.8987C48.8813 24.2148 49.8003 25.3567 51.0884 25.6255V35.5911H52.28V25.6255C53.569 25.3571 54.489 24.2155 54.4774 22.8987C54.4774 21.3572 53.2276 20.1074 51.6862 20.1074C50.1447 20.1074 48.8949 21.3572 48.8949 22.8987Z" fill="#00ABE2"/>
</g>
<defs>
<clipPath id="clip0">
<rect x="13.7516" y="13.752" width="42.5" height="42.5" fill="white"/>
</clipPath>
</defs>
</svg>
